<?xml version="1.0" encoding="UTF-8" standalone="no"?>
<!-- Created with Inkscape (http://www.inkscape.org/) -->

<svg
   width="512"
   height="512"
   viewBox="0 0 135.46667 135.46667"
   version="1.1"
   id="svg5"
   inkscape:version="1.4.2 (ebf0e940d0, 2025-05-08)"
   sodipodi:docname="TKUITOCC_logo_1_path.svg"
   xmlns:inkscape="http://www.inkscape.org/namespaces/inkscape"
   xmlns:sodipodi="http://sodipodi.sourceforge.net/DTD/sodipodi-0.dtd"
   xmlns:xlink="http://www.w3.org/1999/xlink"
   xmlns="http://www.w3.org/2000/svg"
   xmlns:svg="http://www.w3.org/2000/svg">
  <sodipodi:namedview
     id="namedview7"
     pagecolor="#ffffff"
     bordercolor="#666666"
     borderopacity="1.0"
     inkscape:pageshadow="2"
     inkscape:pageopacity="0.0"
     inkscape:pagecheckerboard="0"
     inkscape:document-units="px"
     showgrid="false"
     inkscape:snap-bbox="true"
     inkscape:snap-bbox-midpoints="true"
     inkscape:zoom="0.82511234"
     inkscape:cx="246.63308"
     inkscape:cy="298.14122"
     inkscape:window-width="1536"
     inkscape:window-height="792"
     inkscape:window-x="0"
     inkscape:window-y="0"
     inkscape:window-maximized="1"
     inkscape:current-layer="layer1"
     showguides="false"
     inkscape:showpageshadow="2"
     inkscape:deskcolor="#d1d1d1" />
  <defs
     id="defs2">
    <linearGradient
       inkscape:collect="always"
       id="linearGradient4058">
      <stop
         style="stop-color:#4e4e4e;stop-opacity:1"
         offset="0"
         id="stop4054" />
      <stop
         style="stop-color:#343434;stop-opacity:1"
         offset="0.5"
         id="stop4480" />
      <stop
         style="stop-color:#1b1b1b;stop-opacity:1"
         offset="1"
         id="stop4056" />
    </linearGradient>
    <linearGradient
       inkscape:collect="always"
       xlink:href="#linearGradient4058"
       id="linearGradient4060"
       x1="2.6458359"
       y1="67.733337"
       x2="132.82084"
       y2="67.733337"
       gradientUnits="userSpaceOnUse"
       gradientTransform="translate(-2.3583984e-6)" />
  </defs>
  <g
     inkscape:label="圖層 1"
     inkscape:groupmode="layer"
     id="layer1">
    <circle
       style="fill:#cdcdd4;fill-opacity:1;stroke:none;stroke-width:9.17685"
       id="path858"
       cx="67.733337"
       cy="67.733337"
       r="67.733337" />
    <circle
       style="fill:url(#linearGradient4060);fill-opacity:1;stroke:none;stroke-width:8.64443"
       id="path858-6"
       cx="67.733337"
       cy="67.733337"
       r="65.087502" />
    <text
       xml:space="preserve"
       style="font-size:58.2083px;line-height:1;font-family:sans-serif;fill:#ffffff;fill-opacity:1;stroke-width:0.264583"
       x="67.238548"
       y="64.320206"
       id="text2173"
       inkscape:transform-center-x="8.9250108"
       inkscape:transform-center-y="-18.157781"><tspan
         sodipodi:role="line"
         id="tspan2171"
         style="font-style:normal;font-variant:normal;font-weight:bold;font-stretch:normal;font-size:58.2083px;font-family:'Zilla Slab';-inkscape-font-specification:'Zilla Slab';text-align:center;text-anchor:middle;fill:#ffffff;fill-opacity:1;stroke-width:0.264583"
         x="67.238548"
         y="64.320206" /></text>
    <path
       style="font-weight:bold;font-size:21.6958px;line-height:1;font-family:'Zilla Slab';-inkscape-font-specification:'Zilla Slab';fill:#ffffff;stroke-width:0.264583"
       d="m 19.037198,59.5143 -2.039406,-0.629178 c -0.173566,1.453618 -0.932919,1.540402 -1.280052,1.540402 -0.694265,0 -1.171573,-0.347133 -1.171573,-1.280053 V 54.76292 h 3.51472 v -1.996014 h -3.51472 v -2.972325 h -2.798758 v 2.972325 h -1.388532 v 1.996014 h 1.388532 v 4.859859 c 0,2.017709 1.475314,3.145891 3.644894,3.145891 2.039405,0 3.362849,-0.998007 3.644895,-3.25437 z m 11.520485,3.037412 v -2.104493 h -0.846136 l -2.777063,-3.167587 2.104493,-2.386538 h 1.063094 V 52.766906 H 25.19882 v 2.126188 h 1.171574 l -1.431923,1.648881 H 23.311286 V 47.625001 H 19.1023 v 2.126189 h 1.410227 v 10.696029 h -1.301748 v 2.104493 h 4.990034 v -2.104493 h -0.889527 v -1.930926 h 1.453618 l 1.692273,1.930926 h -0.911224 v 2.104493 z m 12.692031,0 v -2.104493 h -1.410227 v -7.680313 h -4.382552 v 2.104493 h 1.583794 v 3.427936 c 0,1.366836 -0.759353,2.321451 -2.104493,2.321451 -1.106486,0 -1.670576,-0.650874 -1.670576,-2.343147 v -5.510733 h -4.100507 v 2.104493 h 1.301748 v 4.49103 c 0,2.321451 1.583794,3.384545 3.427937,3.384545 1.431923,0 2.516713,-0.607482 3.145891,-1.692272 v 1.49701 z m 1.583775,-6.270086 h 2.907237 v -3.51472 h -2.907237 z m 0,6.270086 h 2.907237 v -3.51472 H 44.833489 Z M 56.766163,47.625001 h -2.755367 l -4.230681,14.926711 h 2.755367 z m 5.554093,0 h -2.755367 l -4.230681,14.926711 h 2.755366 z m 7.116209,14.926711 v -2.473321 h -1.518706 v -9.155628 h 1.518706 v -2.473321 h -5.944649 v 2.473321 h 1.518706 v 9.155628 h -1.518706 v 2.473321 z M 83.929248,53.222518 83.495332,48.449442 H 71.172117 l -0.433916,4.773076 2.473321,0.216958 0.433916,-2.516713 h 2.234668 v 9.155628 h -2.169581 v 2.473321 h 7.376573 v -2.473321 h -2.299755 v -9.155628 h 2.234667 l 0.433916,2.516713 z m 15.404037,2.256363 c 0,-3.970332 -2.668583,-7.246397 -7.18131,-7.246397 -4.425943,0 -7.224702,3.167586 -7.224702,7.289789 0,3.92694 2.538409,7.246397 7.137919,7.246397 4.577814,0 7.268093,-3.297762 7.268093,-7.289789 z m -3.145891,0.08678 c 0,2.755367 -1.214965,4.642902 -3.970331,4.642902 -2.972325,0 -4.143898,-2.191276 -4.143898,-4.751381 0,-2.668583 1.258356,-4.664597 4.057114,-4.664597 2.625192,0 4.057115,1.779056 4.057115,4.773076 z m 16.553896,5.489038 0.28205,-3.319458 -2.36485,-0.216958 -0.30374,2.104493 c -0.54239,0.325437 -1.62718,0.585787 -2.69028,0.585787 -2.42993,0 -4.16559,-1.388532 -4.16559,-4.664598 0,-3.080803 1.5404,-4.75138 3.97033,-4.75138 0.95462,0 2.14789,0.26035 2.88554,0.759353 l 0.30374,1.865839 2.36485,-0.216958 -0.34714,-3.276066 c -0.91122,-0.846136 -2.66858,-1.692272 -5.07681,-1.692272 -5.35887,0 -7.22471,4.230681 -7.22471,7.506747 0,4.187289 3.05911,7.029439 7.09453,7.029439 2.01771,0 4.33916,-0.715961 5.27208,-1.713968 z m 13.97208,0 0.28204,-3.319458 -2.36484,-0.216958 -0.30374,2.104493 c -0.5424,0.325437 -1.62719,0.585787 -2.69028,0.585787 -2.42993,0 -4.16559,-1.388532 -4.16559,-4.664598 0,-3.080803 1.5404,-4.75138 3.97033,-4.75138 0.95461,0 2.14788,0.26035 2.88554,0.759353 l 0.30374,1.865839 2.36484,-0.216958 -0.34713,-3.276066 c -0.91122,-0.846136 -2.66858,-1.692272 -5.07682,-1.692272 -5.35886,0 -7.2247,4.230681 -7.2247,7.506747 0,4.187289 3.05911,7.029439 7.09453,7.029439 2.01771,0 4.33916,-0.715961 5.27208,-1.713968 z"
       id="text11458"
       aria-label="tku://ITOCC" />
    <g
       id="text11458-0-0"
       style="font-size:9.525px;line-height:1;fill:#ffffff;stroke-width:0.264583"
       aria-label="Information Technology and &#10;Open  Culture  Community_">
      <path
         style="font-family:'Zilla Slab';-inkscape-font-specification:'Zilla Slab'"
         d="m 12.045554,74.381783 v -0.6096 h -0.771525 v -4.97205 h 0.771525 v -0.6096 H 9.7881287 v 0.6096 h 0.7810503 v 4.97205 H 9.7881287 v 0.6096 z m 5.781679,0 v -0.542925 h -0.733425 v -2.1717 c 0,-1.12395 -0.62865,-1.609725 -1.457325,-1.609725 -0.676275,0 -1.20015,0.314325 -1.4859,0.8382 v -0.752475 h -1.42875 v 0.542925 h 0.762 v 3.152775 h -0.74295 v 0.542925 h 2.15265 v -0.542925 h -0.74295 v -1.9812 c 0.02858,-0.6477 0.523875,-1.23825 1.285875,-1.23825 0.5715,0 0.981075,0.333375 0.981075,1.247775 v 1.971675 h -0.733425 v 0.542925 z m 2.562225,-6.64845 c -0.81915,0 -1.495425,0.62865 -1.495425,1.61925 v 0.790575 h -0.6096 v 0.5334 h 0.6096 v 3.1623 h -0.733425 v 0.542925 h 2.371725 v -0.542925 h -0.962025 v -3.1623 h 1.095375 v -0.5334 h -1.095375 v -0.847725 c 0,-0.657225 0.276225,-1.00965 0.752475,-1.00965 0.180975,0 0.3429,0.01905 0.485775,0.0762 l 0.180975,0.7239 0.542925,-0.06667 -0.161925,-0.981075 c -0.295275,-0.24765 -0.59055,-0.3048 -0.981075,-0.3048 z m 5.029202,4.524375 c 0,-1.20015 -0.70485,-2.2098 -2.085975,-2.2098 -1.3716,0 -2.0955,1.00965 -2.0955,2.2479 0,1.27635 0.771525,2.181225 2.0574,2.181225 1.304925,0 2.124075,-0.93345 2.124075,-2.219325 z m -0.70485,-0.0095 c 0,0.9525 -0.4953,1.65735 -1.400175,1.65735 -0.904875,0 -1.381125,-0.7239 -1.381125,-1.647825 0,-0.942975 0.4953,-1.6383 1.381125,-1.6383 0.885825,0 1.400175,0.657225 1.400175,1.628775 z m 3.762379,-2.181225 c -0.485775,0 -0.885825,0.36195 -1.04775,0.8382 v -0.762 H 26.03779 v 0.542925 h 0.762 v 3.152775 h -0.74295 v 0.542925 h 2.390774 v -0.542925 h -0.981075 v -2.085975 c 0,-0.657225 0.371475,-1.114425 0.866775,-1.114425 0.1143,0 0.219075,0.01905 0.32385,0.05715 l 0.161925,0.7239 0.542925,-0.06667 -0.161925,-1.0668 c -0.20955,-0.17145 -0.428625,-0.219075 -0.7239,-0.219075 z m 9.429752,4.314825 v -0.542925 h -0.74295 v -2.1717 c 0,-1.12395 -0.6096,-1.609725 -1.419225,-1.609725 -0.733425,0 -1.23825,0.428625 -1.495425,1.019175 -0.180975,-0.70485 -0.70485,-1.019175 -1.362075,-1.019175 -0.676275,0 -1.143,0.36195 -1.419225,0.8763 v -0.790575 h -1.419225 v 0.542925 h 0.752475 v 3.152775 h -0.74295 v 0.542925 h 2.19075 v -0.542925 h -0.78105 v -1.96215 c 0.01905,-0.542925 0.43815,-1.2573 1.228725,-1.2573 0.55245,0 0.942975,0.32385 0.942975,1.247775 v 1.971675 h -0.6096 v 0.542925 h 2.0193 v -0.542925 h -0.733425 v -1.9431 c 0.01905,-0.5334 0.43815,-1.27635 1.2192,-1.27635 0.561975,0 0.962025,0.333375 0.962025,1.247775 v 1.971675 h -0.619125 v 0.542925 z m 0.857258,-3.914775 -0.1524,0.981075 0.55245,0.06668 0.161925,-0.733425 c 0.257175,-0.123825 0.5334,-0.17145 0.81915,-0.17145 0.762,0 0.962025,0.4191 0.962025,1.0287 v 0.381 c -0.2286,-0.01905 -0.4953,-0.0381 -0.752475,-0.0381 -0.9525,0 -1.9812,0.238125 -1.9812,1.304925 0,0.904875 0.7239,1.190625 1.285875,1.190625 0.6858,0 1.1811,-0.4191 1.4478,-0.8763 v 0.01905 c 0.0095,0.523875 0.276225,0.85725 0.771525,0.85725 0.200025,0 0.40005,-0.05715 0.55245,-0.142875 l -0.0095,-0.43815 c -0.08573,0.0381 -0.200025,0.05715 -0.28575,0.05715 -0.24765,0 -0.36195,-0.142875 -0.36195,-0.4572 v -2.0193 c 0,-0.9525 -0.5334,-1.419225 -1.514475,-1.419225 -0.55245,0 -1.057275,0.1143 -1.495425,0.409575 z m 2.34315,2.3241 c -0.04763,0.695325 -0.657225,1.133475 -1.247775,1.133475 -0.371475,0 -0.790575,-0.17145 -0.790575,-0.714375 0,-0.657225 0.619125,-0.790575 1.247775,-0.790575 0.28575,0 0.55245,0.02857 0.790575,0.04762 z m 4.972046,0.447675 -0.504825,-0.161925 c -0.123825,0.6858 -0.43815,0.81915 -0.771525,0.81915 -0.51435,0 -0.714375,-0.333375 -0.714375,-0.847725 v -2.371725 h 1.65735 v -0.5334 h -1.65735 v -1.362075 h -0.66675 v 1.362075 h -0.6858 v 0.5334 h 0.6858 v 2.45745 c 0,0.828675 0.466725,1.343025 1.31445,1.343025 0.762,0 1.228725,-0.4191 1.343025,-1.23825 z m 1.047754,-4.191 h 0.7239 v -0.866775 h -0.7239 z m 1.476375,5.334 v -0.542925 h -0.74295 v -3.6957 h -1.42875 v 0.542925 h 0.762 v 3.152775 h -0.74295 v 0.542925 z m 4.724408,-2.124075 c 0,-1.20015 -0.70485,-2.2098 -2.085975,-2.2098 -1.3716,0 -2.0955,1.00965 -2.0955,2.2479 0,1.27635 0.771525,2.181225 2.0574,2.181225 1.304925,0 2.124075,-0.93345 2.124075,-2.219325 z m -0.70485,-0.0095 c 0,0.9525 -0.4953,1.65735 -1.400175,1.65735 -0.904875,0 -1.381125,-0.7239 -1.381125,-1.647825 0,-0.942975 0.4953,-1.6383 1.381125,-1.6383 0.885825,0 1.400175,0.657225 1.400175,1.628775 z m 6.429379,2.1336 v -0.542925 h -0.733425 v -2.1717 c 0,-1.12395 -0.62865,-1.609725 -1.457325,-1.609725 -0.676275,0 -1.20015,0.314325 -1.4859,0.8382 v -0.752475 h -1.42875 v 0.542925 h 0.762 v 3.152775 h -0.74295 v 0.542925 h 2.15265 v -0.542925 h -0.74295 v -1.9812 c 0.02857,-0.6477 0.523875,-1.23825 1.285875,-1.23825 0.5715,0 0.981075,0.333375 0.981075,1.247775 v 1.971675 h -0.733425 v 0.542925 z m 7.781919,-4.3053 -0.1905,-1.88595 h -5.133975 l -0.180975,1.88595 0.6096,0.04763 0.1905,-1.323975 h 1.6002 v 4.97205 h -1.0668 v 0.6096 h 2.8575 v -0.6096 h -1.095375 v -4.97205 h 1.6002 l 0.1905,1.323975 z m 3.733817,3.0861 -0.561975,-0.123825 c -0.13335,0.523875 -0.504825,0.866775 -1.171575,0.866775 -0.8382,0 -1.304925,-0.542925 -1.343025,-1.4859 h 2.981325 c 0.0381,-0.17145 0.05715,-0.3429 0.05715,-0.504825 -0.0095,-1.000125 -0.638175,-1.857375 -1.800225,-1.857375 -1.20015,0 -1.9431,0.9525 -1.9431,2.26695 0,1.3716 0.8001,2.15265 2.00025,2.15265 1.04775,0 1.666875,-0.59055 1.781175,-1.31445 z m -0.74295,-1.23825 h -2.3241 c 0.08572,-0.714375 0.428625,-1.31445 1.209675,-1.31445 0.828675,0 1.1811,0.6858 1.114425,1.31445 z m 5.153017,1.0287 -0.5715,-0.123825 c -0.123825,0.695325 -0.485775,1.076325 -1.143,1.076325 -0.8382,0 -1.2954,-0.600075 -1.2954,-1.61925 0,-0.9144 0.36195,-1.65735 1.266825,-1.65735 0.36195,0 0.6477,0.0762 0.904875,0.238125 l 0.161925,0.714375 0.55245,-0.06668 -0.161925,-1.019175 c -0.428625,-0.32385 -0.885825,-0.43815 -1.4478,-0.43815 -1.31445,0 -1.9812,1.095375 -1.9812,2.26695 0,1.362075 0.752475,2.15265 1.92405,2.15265 1.171575,0 1.6764,-0.78105 1.7907,-1.524 z m 5.572122,1.42875 v -0.542925 h -0.733425 v -2.1717 c 0,-1.12395 -0.62865,-1.609725 -1.457325,-1.609725 -0.6858,0 -1.20015,0.32385 -1.4859,0.847725 v -3.076575 h -1.4097 v 0.542925 h 0.733425 v 5.46735 h -0.733425 v 0.542925 h 2.143125 v -0.542925 h -0.733425 v -2.00025 c 0.02858,-0.619125 0.523875,-1.2192 1.266825,-1.2192 0.59055,0 1.000125,0.333375 1.000125,1.247775 v 1.971675 h -0.74295 v 0.542925 z m 5.457825,0 v -0.542925 h -0.733425 v -2.1717 c 0,-1.12395 -0.62865,-1.609725 -1.457325,-1.609725 -0.676275,0 -1.20015,0.314325 -1.4859,0.8382 v -0.752475 h -1.42875 v 0.542925 h 0.762 v 3.152775 h -0.74295 v 0.542925 h 2.15265 v -0.542925 h -0.74295 v -1.9812 c 0.02858,-0.6477 0.523875,-1.23825 1.285875,-1.23825 0.5715,0 0.981075,0.333375 0.981075,1.247775 v 1.971675 h -0.733425 v 0.542925 z m 4.619624,-2.124075 c 0,-1.20015 -0.70485,-2.2098 -2.085975,-2.2098 -1.371599,0 -2.095499,1.00965 -2.095499,2.2479 0,1.27635 0.771525,2.181225 2.057399,2.181225 1.304925,0 2.124075,-0.93345 2.124075,-2.219325 z m -0.70485,-0.0095 c 0,0.9525 -0.4953,1.65735 -1.400175,1.65735 -0.904874,0 -1.381124,-0.7239 -1.381124,-1.647825 0,-0.942975 0.4953,-1.6383 1.381124,-1.6383 0.885825,0 1.400175,0.657225 1.400175,1.628775 z m 3.40043,2.1336 v -0.542925 h -0.74295 V 67.828583 H 91.16024 v 0.542925 h 0.752475 v 5.46735 h -0.74295 v 0.542925 z m 4.724403,-2.124075 c 0,-1.20015 -0.70485,-2.2098 -2.085975,-2.2098 -1.3716,0 -2.0955,1.00965 -2.0955,2.2479 0,1.27635 0.771525,2.181225 2.0574,2.181225 1.304925,0 2.124075,-0.93345 2.124075,-2.219325 z m -0.70485,-0.0095 c 0,0.9525 -0.4953,1.65735 -1.400175,1.65735 -0.904875,0 -1.381125,-0.7239 -1.381125,-1.647825 0,-0.942975 0.4953,-1.6383 1.381125,-1.6383 0.885825,0 1.400175,0.657225 1.400175,1.628775 z m 6.115052,-1.5621 v -0.542925 h -1.36207 v 0.66675 c -0.27623,-0.485775 -0.8001,-0.752475 -1.43828,-0.752475 -1.314447,0 -1.895472,1.1811 -1.895472,2.314575 0,1.3335 0.809625,2.066925 1.819272,2.066925 0.8001,0 1.2573,-0.428625 1.51448,-0.923925 v 0.78105 c 0,1.057274 -0.5715,1.638299 -1.38113,1.638299 -0.5715,0 -1.171572,-0.276225 -1.390647,-0.942974 l -0.5334,0.266699 c 0.2286,0.847725 1.00965,1.247775 1.895477,1.247775 1.32397,0 2.08597,-0.847725 2.08597,-2.181224 v -3.63855 z m -1.36207,1.8669 c -0.019,0.638175 -0.56198,1.31445 -1.3716,1.31445 -0.69533,0 -1.238252,-0.504825 -1.238252,-1.54305 0,-0.89535 0.40005,-1.69545 1.352552,-1.69545 0.69532,0 1.2573,0.47625 1.2573,1.190625 z m 6.30555,-1.8669 v -0.542925 h -1.8669 v 0.542925 h 0.6858 l -1.05727,2.847975 h -0.0572 l -1.19063,-2.847975 h 0.74295 v -0.542925 h -1.96215 v 0.542925 h 0.50483 l 1.54305,3.686175 -0.55245,1.495424 H 104.4 v 0.542925 h 2.15265 v -0.542925 h -0.7239 l 0.5715,-1.485899 1.49543,-3.6957 z m 2.79082,-0.219075 -0.1524,0.981075 0.55245,0.06668 0.16192,-0.733425 c 0.25718,-0.123825 0.5334,-0.17145 0.81915,-0.17145 0.762,0 0.96203,0.4191 0.96203,1.0287 v 0.381 c -0.2286,-0.01905 -0.4953,-0.0381 -0.75248,-0.0381 -0.9525,0 -1.9812,0.238125 -1.9812,1.304925 0,0.904875 0.7239,1.190625 1.28588,1.190625 0.6858,0 1.1811,-0.4191 1.4478,-0.8763 v 0.01905 c 0.01,0.523875 0.27622,0.85725 0.77152,0.85725 0.20003,0 0.40005,-0.05715 0.55245,-0.142875 l -0.01,-0.43815 c -0.0857,0.0381 -0.20003,0.05715 -0.28575,0.05715 -0.24765,0 -0.36195,-0.142875 -0.36195,-0.4572 v -2.0193 c 0,-0.9525 -0.5334,-1.419225 -1.51448,-1.419225 -0.55245,0 -1.05727,0.1143 -1.49542,0.409575 z m 2.34315,2.3241 c -0.0476,0.695325 -0.65723,1.133475 -1.24778,1.133475 -0.37147,0 -0.79057,-0.17145 -0.79057,-0.714375 0,-0.657225 0.61912,-0.790575 1.24777,-0.790575 0.28575,0 0.55245,0.02857 0.79058,0.04762 z m 6.85799,1.590675 v -0.542925 h -0.73342 v -2.1717 c 0,-1.12395 -0.62865,-1.609725 -1.45733,-1.609725 -0.67627,0 -1.20015,0.314325 -1.4859,0.8382 v -0.752475 h -1.42875 v 0.542925 h 0.762 v 3.152775 h -0.74295 v 0.542925 h 2.15265 v -0.542925 h -0.74295 v -1.9812 c 0.0286,-0.6477 0.52388,-1.23825 1.28588,-1.23825 0.5715,0 0.98107,0.333375 0.98107,1.247775 v 1.971675 h -0.73342 v 0.542925 z m 5.1816,0 v -0.542925 h -0.73342 v -6.010275 h -1.69545 v 0.542925 h 1.0287 v 2.45745 c -0.27623,-0.4953 -0.8001,-0.771525 -1.41923,-0.771525 -1.38112,0 -1.91452,1.1811 -1.91452,2.314575 0,1.323975 0.7239,2.105025 1.81927,2.105025 0.77153,0 1.23825,-0.447675 1.51448,-0.9525 v 0.85725 z m -1.40017,-1.876425 c -0.0286,0.638175 -0.58103,1.400175 -1.34303,1.400175 -0.73342,0 -1.28587,-0.542925 -1.28587,-1.58115 0,-0.89535 0.4191,-1.69545 1.36207,-1.69545 0.67628,0 1.23825,0.4953 1.26683,1.20015 z"
         id="path1" />
      <path
         style="font-family:'Zilla Slab';-inkscape-font-specification:'Zilla Slab'"
         d="m 15.960328,81.696982 c 0,-1.762125 -1.247775,-3.190875 -3.105149,-3.190875 -1.8288,0 -3.0956253,1.4097 -3.0956253,3.190875 0,1.7526 1.2096753,3.190875 3.0765753,3.190875 1.866899,0 3.124199,-1.438275 3.124199,-3.190875 z m -0.752475,0.0095 c 0,1.438275 -0.8763,2.5527 -2.333624,2.5527 -1.50495,0 -2.3622,-1.171575 -2.3622,-2.57175 0,-1.419225 0.8763,-2.5527 2.34315,-2.5527 1.438274,0 2.352674,1.08585 2.352674,2.57175 z m 6.000751,0.847725 c 0,-1.31445 -0.74295,-2.085975 -1.8288,-2.085975 -0.78105,0 -1.247775,0.4572 -1.50495,0.97155 v -0.885825 h -1.42875 v 0.542925 h 0.762 v 5.1816 h -0.752475 v 0.542925 h 2.4003 v -0.542925 h -0.981075 v -2.105025 c 0.28575,0.466725 0.8001,0.714375 1.400175,0.714375 1.381125,0 1.933575,-1.20015 1.933575,-2.333625 z m -0.70485,0.05715 c 0,0.904875 -0.409575,1.704975 -1.362075,1.704975 -0.70485,0 -1.266825,-0.542925 -1.266825,-1.2573 v -0.62865 c 0.02858,-0.6477 0.5715,-1.39065 1.3335,-1.39065 0.74295,0 1.2954,0.55245 1.2954,1.571625 z m 5.210168,0.962025 -0.561975,-0.123825 c -0.13335,0.523875 -0.504825,0.866775 -1.171575,0.866775 -0.8382,0 -1.304925,-0.542925 -1.343025,-1.4859 h 2.981325 c 0.0381,-0.17145 0.05715,-0.3429 0.05715,-0.504825 -0.0095,-1.000125 -0.638175,-1.857375 -1.800225,-1.857375 -1.20015,0 -1.9431,0.9525 -1.9431,2.26695 0,1.3716 0.8001,2.15265 2.00025,2.15265 1.04775,0 1.666875,-0.59055 1.781175,-1.31445 z m -0.74295,-1.23825 h -2.3241 c 0.08573,-0.714375 0.428625,-1.31445 1.209675,-1.31445 0.828675,0 1.1811,0.6858 1.114425,1.31445 z m 6.448417,2.45745 v -0.542925 h -0.733425 v -2.1717 c 0,-1.12395 -0.62865,-1.609725 -1.457325,-1.609725 -0.676275,0 -1.20015,0.314325 -1.4859,0.8382 v -0.752475 h -1.42875 v 0.542925 h 0.762 v 3.152775 h -0.74295 v 0.542925 h 2.15265 v -0.542925 h -0.74295 v -1.9812 c 0.02858,-0.6477 0.523875,-1.23825 1.285875,-1.23825 0.5715,0 0.981075,0.333375 0.981075,1.247775 v 1.971675 h -0.733425 v 0.542925 z m 9.886936,-0.47625 0.161925,-1.190625 -0.59055,-0.05715 -0.180975,0.9144 c -0.40005,0.200025 -0.809625,0.276225 -1.362075,0.276225 -1.476374,0 -2.390774,-1.019175 -2.390774,-2.5527 0,-1.50495 0.9144,-2.57175 2.266949,-2.57175 0.695325,0 1.133475,0.17145 1.533525,0.43815 l 0.17145,0.904875 0.600075,-0.05715 -0.17145,-1.190625 c -0.504825,-0.428625 -1.16205,-0.7239 -2.19075,-0.7239 -1.800224,0 -2.943224,1.514475 -2.943224,3.228975 0,1.800225 1.228725,3.152775 3.028949,3.152775 0.8763,0 1.571625,-0.1905 2.066925,-0.5715 z m 5.876924,0.47625 v -0.542925 h -0.762 v -3.6957 h -1.552575 v 0.542925 h 0.885825 v 1.9431 c -0.01905,0.6096 -0.5334,1.27635 -1.2573,1.27635 -0.600075,0 -1.019175,-0.32385 -1.019175,-1.23825 v -2.524125 h -1.4097 v 0.542925 h 0.74295 v 2.1717 c 0,1.133475 0.638175,1.61925 1.46685,1.61925 0.676275,0 1.209675,-0.36195 1.476375,-0.89535 v 0.8001 z m 2.486033,0 v -0.542925 h -0.74295 v -6.010275 h -1.419225 v 0.542925 h 0.752475 v 5.46735 h -0.74295 v 0.542925 z m 3.676657,-1.143 -0.504825,-0.161925 c -0.123825,0.6858 -0.43815,0.81915 -0.771525,0.81915 -0.51435,0 -0.714375,-0.333375 -0.714375,-0.847725 v -2.371725 h 1.65735 v -0.5334 h -1.65735 v -1.362075 h -0.66675 v 1.362075 h -0.6858 v 0.5334 h 0.6858 v 2.45745 c 0,0.828675 0.466725,1.343025 1.31445,1.343025 0.762,0 1.228725,-0.4191 1.343025,-1.23825 z m 5.248275,1.143 v -0.542925 h -0.762 v -3.6957 h -1.552575 v 0.542925 h 0.885825 v 1.9431 c -0.01905,0.6096 -0.5334,1.27635 -1.2573,1.27635 -0.600075,0 -1.019175,-0.32385 -1.019175,-1.23825 v -2.524125 h -1.4097 v 0.542925 h 0.74295 v 2.1717 c 0,1.133475 0.638175,1.61925 1.46685,1.61925 0.676275,0 1.209675,-0.36195 1.476375,-0.89535 v 0.8001 z M 61.4422,80.477782 c -0.485774,0 -0.885824,0.36195 -1.047749,0.8382 v -0.762 h -1.39065 v 0.542925 h 0.762 v 3.152775 h -0.74295 v 0.542925 h 2.390774 v -0.542925 h -0.981074 v -2.085975 c 0,-0.657225 0.371475,-1.114425 0.866774,-1.114425 0.1143,0 0.219075,0.01905 0.32385,0.05715 l 0.161925,0.7239 0.542925,-0.06668 -0.161925,-1.0668 c -0.20955,-0.17145 -0.428625,-0.219075 -0.7239,-0.219075 z M 66.880975,83.573407 66.319,83.449582 c -0.13335,0.523875 -0.504825,0.866775 -1.171575,0.866775 -0.8382,0 -1.304925,-0.542925 -1.343025,-1.4859 h 2.981325 c 0.0381,-0.17145 0.05715,-0.3429 0.05715,-0.504825 -0.0095,-1.000125 -0.638175,-1.857375 -1.800225,-1.857375 -1.20015,0 -1.9431,0.9525 -1.9431,2.26695 0,1.3716 0.8001,2.15265 2.00025,2.15265 1.04775,0 1.666875,-0.59055 1.781175,-1.31445 z m -0.74295,-1.23825 h -2.3241 c 0.08573,-0.714375 0.428625,-1.31445 1.209675,-1.31445 0.828675,0 1.1811,0.6858 1.114425,1.31445 z m 10.877529,1.9812 0.161925,-1.190625 -0.59055,-0.05715 -0.180975,0.9144 c -0.40005,0.200025 -0.809625,0.276225 -1.362075,0.276225 -1.476375,0 -2.390775,-1.019175 -2.390775,-2.5527 0,-1.50495 0.9144,-2.57175 2.26695,-2.57175 0.695325,0 1.133475,0.17145 1.533525,0.43815 l 0.17145,0.904875 0.600075,-0.05715 -0.17145,-1.190625 c -0.504825,-0.428625 -1.16205,-0.7239 -2.19075,-0.7239 -1.800225,0 -2.943225,1.514475 -2.943225,3.228975 0,1.800225 1.228725,3.152775 3.02895,3.152775 0.8763,0 1.571625,-0.1905 2.066925,-0.5715 z m 5.210174,-1.647825 c 0,-1.20015 -0.70485,-2.2098 -2.085975,-2.2098 -1.3716,0 -2.0955,1.00965 -2.0955,2.2479 0,1.27635 0.771525,2.181225 2.0574,2.181225 1.304925,0 2.124075,-0.93345 2.124075,-2.219325 z m -0.70485,-0.0095 c 0,0.9525 -0.4953,1.65735 -1.400175,1.65735 -0.904875,0 -1.381125,-0.7239 -1.381125,-1.647825 0,-0.942975 0.4953,-1.6383 1.381125,-1.6383 0.885825,0 1.400175,0.657225 1.400175,1.628775 z m 9.191629,2.1336 v -0.542925 h -0.74295 v -2.1717 c 0,-1.12395 -0.6096,-1.609725 -1.419225,-1.609725 -0.733425,0 -1.23825,0.428625 -1.495425,1.019175 -0.180975,-0.70485 -0.70485,-1.019175 -1.362075,-1.019175 -0.676275,0 -1.143,0.36195 -1.419225,0.8763 v -0.790575 h -1.419225 v 0.542925 h 0.752475 v 3.152775 h -0.74295 v 0.542925 h 2.19075 v -0.542925 h -0.78105 v -1.96215 c 0.01905,-0.542925 0.43815,-1.2573 1.228725,-1.2573 0.55245,0 0.942975,0.32385 0.942975,1.247775 v 1.971675 h -0.6096 v 0.542925 h 2.0193 v -0.542925 h -0.733425 v -1.9431 c 0.01905,-0.5334 0.43815,-1.27635 1.2192,-1.27635 0.561975,0 0.962025,0.333375 0.962025,1.247775 v 1.971675 h -0.619125 v 0.542925 z m 8.220085,0 v -0.542925 h -0.74295 v -2.1717 c 0,-1.12395 -0.6096,-1.609725 -1.419225,-1.609725 -0.733425,0 -1.23825,0.428625 -1.495425,1.019175 -0.180975,-0.70485 -0.70485,-1.019175 -1.362075,-1.019175 -0.676275,0 -1.143,0.36195 -1.419224,0.8763 v -0.790575 h -1.419225 v 0.542925 h 0.752475 v 3.152775 h -0.74295 v 0.542925 h 2.190749 v -0.542925 h -0.781049 v -1.96215 c 0.01905,-0.542925 0.438149,-1.2573 1.228724,-1.2573 0.55245,0 0.942975,0.32385 0.942975,1.247775 v 1.971675 h -0.6096 v 0.542925 h 2.0193 v -0.542925 h -0.733425 v -1.9431 c 0.01905,-0.5334 0.43815,-1.27635 1.2192,-1.27635 0.561975,0 0.962025,0.333375 0.962025,1.247775 v 1.971675 h -0.619125 v 0.542925 z m 5.286378,0 v -0.542925 h -0.762 v -3.6957 h -1.55258 v 0.542925 h 0.88583 v 1.9431 c -0.0191,0.6096 -0.5334,1.27635 -1.2573,1.27635 -0.60007,0 -1.01917,-0.32385 -1.01917,-1.23825 v -2.524125 h -1.409705 v 0.542925 h 0.74295 v 2.1717 c 0,1.133475 0.638175,1.61925 1.466845,1.61925 0.67628,0 1.20968,-0.36195 1.47638,-0.89535 v 0.8001 z m 5.51499,0 v -0.542925 h -0.73343 v -2.1717 c 0,-1.12395 -0.62865,-1.609725 -1.45732,-1.609725 -0.67628,0 -1.20015,0.314325 -1.4859,0.8382 v -0.752475 h -1.42875 v 0.542925 h 0.762 v 3.152775 h -0.74295 v 0.542925 h 2.15265 v -0.542925 h -0.74295 v -1.9812 c 0.0286,-0.6477 0.52387,-1.23825 1.28587,-1.23825 0.5715,0 0.98108,0.333375 0.98108,1.247775 v 1.971675 h -0.73343 v 0.542925 z m 1.08585,-5.334 h 0.7239 v -0.866775 h -0.7239 z m 1.47637,5.334 v -0.542925 h -0.74295 v -3.6957 h -1.42875 v 0.542925 h 0.762 v 3.152775 h -0.74295 v 0.542925 z m 3.67666,-1.143 -0.50483,-0.161925 c -0.12382,0.6858 -0.43815,0.81915 -0.77152,0.81915 -0.51435,0 -0.71438,-0.333375 -0.71438,-0.847725 v -2.371725 h 1.65735 v -0.5334 h -1.65735 v -1.362075 h -0.66675 v 1.362075 h -0.6858 v 0.5334 h 0.6858 v 2.45745 c 0,0.828675 0.46673,1.343025 1.31445,1.343025 0.762,0 1.22873,-0.4191 1.34303,-1.23825 z m 4.82917,-2.5527 v -0.542925 h -1.8669 v 0.542925 h 0.6858 l -1.05727,2.847975 h -0.0572 l -1.19063,-2.847975 h 0.74295 v -0.542925 h -1.96215 v 0.542925 h 0.50483 l 1.54305,3.686175 -0.55245,1.495425 h -0.79058 v 0.542925 h 2.15265 v -0.542925 h -0.7239 l 0.5715,-1.4859 1.49543,-3.6957 z m 0.58103,4.40055 v 0.485775 h 4.1148 v -0.485775 z"
         id="path2" />
    </g>
  </g>
</svg>
